<svg role="img" viewBox="0 0 24 24" xmlns="http://www.w3.org/2000/svg" id="Lazyvim--Streamline-Simple-Icons.svg" height="24" width="24"><desc>Lazyvim Streamline Icon: https://streamlinehq.com</desc><title>LazyVim</title><path d="M2.87 0a2.5 2.5 0 0 0 -0.697 0.1q-0.187 0.058 -0.351 0.147 -0.163 0.09 -0.297 0.213l-0.008 0.006q-0.133 0.124 -0.235 0.27a1.7 1.7 0 0 0 -0.27 0.643 1.8 1.8 0 0 0 0.105 1.023q0.072 0.164 0.176 0.308 0.105 0.14 0.24 0.26l0.007 0.004q0.137 0.12 0.299 0.205 0.159 0.084 0.348 0.14 0.32 0.093 0.682 0.092h2.8l-4.256 5.09 -0.618 0.733 0.01 0.008q-0.046 0.06 -0.088 0.124l-0.07 0.116L0.59 9.6q-0.03 0.06 -0.05 0.12l-0.006 0.016a1.8 1.8 0 0 0 -0.122 0.66q0 0.219 0.042 0.423 0.039 0.204 0.12 0.4 0.084 0.2 0.21 0.372a2 2 0 0 0 1.067 0.746h0.002q0.397 0.117 0.87 0.117H9.65q0.169 0 0.338 -0.02 0.163 -0.02 0.312 -0.06l0.044 -0.013q0.185 -0.056 0.344 -0.144a1.6 1.6 0 0 0 0.297 -0.21l0.012 -0.01a1.65 1.65 0 0 0 0.414 -0.592q0.063 -0.157 0.095 -0.33a2 2 0 0 0 0.004 -0.672 1.6 1.6 0 0 0 -0.084 -0.304l-0.02 -0.055a1.5 1.5 0 0 0 -0.436 -0.58l-0.006 -0.005a1.65 1.65 0 0 0 -0.635 -0.325 2.7 2.7 0 0 0 -0.675 -0.087H5.918l4.157 -4.95 0.243 -0.304a6 6 0 0 0 0.353 -0.486 2.1 2.1 0 0 0 0.262 -0.64q0.075 -0.315 0.074 -0.674 0 -0.46 -0.142 -0.83a1.7 1.7 0 0 0 -0.437 -0.648 1.8 1.8 0 0 0 -0.66 -0.39A2.6 2.6 0 0 0 8.938 0Zm12.36 6.062q-0.179 0 -0.347 0.024a2 2 0 0 0 -0.325 0.073q-0.18 0.054 -0.338 0.142a1.6 1.6 0 0 0 -0.29 0.21l-0.003 0.003a1.6 1.6 0 0 0 -0.394 0.56q-0.065 0.15 -0.097 0.317 -0.03 0.165 -0.032 0.337a1.7 1.7 0 0 0 0.135 0.655q0.07 0.162 0.171 0.3 0.098 0.131 0.225 0.242l0.01 0.012q0.133 0.114 0.29 0.197 0.155 0.082 0.335 0.134a2.4 2.4 0 0 0 0.658 0.09h2.673L13.82 14.24l-0.594 0.703 0.01 0.008 -0.088 0.123a1 1 0 0 0 -0.066 0.113l-0.057 0.112c-0.015 0.036 -0.046 0.097 -0.055 0.133a1.8 1.8 0 0 0 -0.118 0.64 2.1 2.1 0 0 0 0.158 0.796 1.87 1.87 0 0 0 0.83 0.912q0.19 0.102 0.406 0.166h0.001q0.192 0.057 0.404 0.085 0.214 0.03 0.437 0.03h6.678q0.168 0 0.325 -0.02 0.154 -0.02 0.304 -0.06l0.042 -0.012a1.7 1.7 0 0 0 0.33 -0.14q0.155 -0.083 0.288 -0.203l0.01 -0.01q0.134 -0.124 0.233 -0.265 0.103 -0.146 0.168 -0.308 0.06 -0.152 0.093 -0.318 0.03 -0.166 0.03 -0.34a1.8 1.8 0 0 0 -0.112 -0.605l-0.02 -0.05a1.5 1.5 0 0 0 -0.417 -0.56l-0.004 -0.004a1.6 1.6 0 0 0 -0.29 -0.19 2 2 0 0 0 -0.332 -0.128 2.4 2.4 0 0 0 -0.65 -0.083h-3.575l3.727 -4.435q0.154 -0.182 0.262 -0.314l0.234 -0.291a6 6 0 0 0 0.34 -0.47q0.085 -0.137 0.15 -0.293a2.4 2.4 0 0 0 0.102 -0.324 2.8 2.8 0 0 0 0.07 -0.65q0 -0.445 -0.14 -0.8a1.7 1.7 0 0 0 -0.423 -0.628 1.8 1.8 0 0 0 -0.639 -0.377 2.5 2.5 0 0 0 -0.804 -0.12Zm-11.39 9.23q-0.127 0 -0.256 0.016a1.5 1.5 0 0 0 -0.498 0.162q-0.12 0.068 -0.22 0.158l-0.001 0.004a1.2 1.2 0 0 0 -0.37 0.665 1.2 1.2 0 0 0 0.002 0.506 1.15 1.15 0 0 0 0.374 0.65l0.01 0.01a1.2 1.2 0 0 0 0.47 0.25q0.23 0.067 0.49 0.067h1.776l-2.833 3.39 -0.468 0.553 0.01 0.007 -0.078 0.124 -0.042 0.084c-0.014 0.03 -0.027 0.068 -0.042 0.097a1.3 1.3 0 0 0 -0.09 0.48q0 0.156 0.03 0.305 0.029 0.147 0.088 0.289 0.063 0.146 0.152 0.27a1.4 1.4 0 0 0 0.47 0.413q0.142 0.076 0.304 0.125 0.142 0.042 0.299 0.063 0.159 0.02 0.32 0.02h4.776q0.118 0 0.24 -0.014 0.118 -0.015 0.224 -0.044l0.034 -0.01q0.135 -0.041 0.249 -0.104 0.12 -0.066 0.219 -0.154l0.007 -0.008a1.2 1.2 0 0 0 0.303 -0.432q0.048 -0.113 0.07 -0.24a1.4 1.4 0 0 0 0.002 -0.486 1.2 1.2 0 0 0 -0.06 -0.222l-0.016 -0.042a1.14 1.14 0 0 0 -0.322 -0.426 1.2 1.2 0 0 0 -0.467 -0.24 1.8 1.8 0 0 0 -0.483 -0.06h-2.42l2.768 -3.294 0.167 -0.21 0.139 -0.183a2 2 0 0 0 0.106 -0.158q0.066 -0.104 0.112 -0.22a1.8 1.8 0 0 0 0.115 -0.472q0.014 -0.126 0.013 -0.247 0 -0.33 -0.103 -0.596a1.26 1.26 0 0 0 -0.32 -0.47 1.3 1.3 0 0 0 -0.478 -0.284 1.8 1.8 0 0 0 -0.596 -0.092z" fill="#000000" stroke-width="1"></path></svg>